<?xml version="1.0" standalone="no"?><svg xmlns="http://www.w3.org/2000/svg" viewBox="0 0 1440 320"><path fill="#273036" fill-opacity="1" d="M0,192L12.6,181.3C25.3,171,51,149,76,160C101.1,171,126,213,152,224C176.8,235,202,213,227,213.3C252.6,213,278,235,303,234.7C328.4,235,354,213,379,186.7C404.2,160,429,128,455,122.7C480,117,505,139,531,133.3C555.8,128,581,96,606,90.7C631.6,85,657,107,682,133.3C707.4,160,733,192,758,213.3C783.2,235,808,245,834,229.3C858.9,213,884,171,909,160C934.7,149,960,171,985,160C1010.5,149,1036,107,1061,117.3C1086.3,128,1112,192,1137,192C1162.1,192,1187,128,1213,122.7C1237.9,117,1263,171,1288,165.3C1313.7,160,1339,96,1364,106.7C1389.5,117,1415,203,1427,245.3L1440,288L1440,0L1427.4,0C1414.7,0,1389,0,1364,0C1338.9,0,1314,0,1288,0C1263.2,0,1238,0,1213,0C1187.4,0,1162,0,1137,0C1111.6,0,1086,0,1061,0C1035.8,0,1011,0,985,0C960,0,935,0,909,0C884.2,0,859,0,834,0C808.4,0,783,0,758,0C732.6,0,707,0,682,0C656.8,0,632,0,606,0C581.1,0,556,0,531,0C505.3,0,480,0,455,0C429.5,0,404,0,379,0C353.7,0,328,0,303,0C277.9,0,253,0,227,0C202.1,0,177,0,152,0C126.3,0,101,0,76,0C50.5,0,25,0,13,0L0,0Z"></path></svg>